# xmcd
#
# Track frame offsets:
#	150
#	12683
#	30475
#	45390
#
# Disc length: 783 seconds
# Revision: 0
# Processed by: cddbd v1.5.2PL0 Copyright (c) Steve Scherf et al.
# Submitted via: dBpowerAMP V12.0
#
DISCID=27030d04
DTITLE=The Wam Bam Band - Referenced
DYEAR=1900
DGENRE=R&B
TTITLE0=Barefootin'
TTITLE1=Kiss
TTITLE2=Treat her Right
TTITLE3=Midnight Hour
EXTD=
EXTT0=
EXTT1=
EXTT2=
EXTT3=
PLAYORDER=
